<svg width="161" height="152" viewBox="0 0 161 152" fill="none" xmlns="http://www.w3.org/2000/svg">
<rect x="11" y="144.833" width="152" height="20" rx="10" transform="rotate(-70 11 144.833)" fill="black"/>
<path d="M77 149L77 12C77 6.47717 81.4772 2.00002 87 2.00002V2.00002C92.5228 2.00002 97 6.47717 97 12V149H77Z" fill="black"/>
<path d="M134 149C128.477 149 124 144.523 124 139L124 12C124 6.47717 128.477 2.00002 134 2.00002V2.00002C139.523 2.00002 144 6.47717 144 12V139C144 144.523 139.523 149 134 149V149Z" fill="black"/>
<path d="M136.083 145.426C130.893 147.315 125.155 144.639 123.266 139.449L78.4202 16.2374C76.5313 11.0476 79.2071 5.30915 84.3969 3.42022V3.42022C89.5867 1.5313 95.3251 4.20717 97.214 9.39695L142.059 132.609C143.948 137.798 141.272 143.537 136.083 145.426V145.426Z" fill="black"/>
<path d="M0 129H21C26.5228 129 31 133.477 31 139V139C31 144.523 26.5228 149 21 149H0L0 129Z" fill="black"/>
<path d="M60 12C60 6.47716 64.4772 2 70 2L161 2V22L70 22C64.4771 22 60 17.5229 60 12V12Z" fill="black"/>
<rect x="44" y="66" width="46" height="20" rx="10" fill="black"/>
</svg>
