<svg width="163" height="160" viewBox="0 0 163 160" fill="none" xmlns="http://www.w3.org/2000/svg">
<path d="M79 154L79 17.0001C79 11.4772 83.4772 7.00005 89 7.00005C94.5228 7.00005 99 11.4772 99 17.0001V154H79Z" fill="black"/>
<path d="M123.845 152.788L74 15.8404L92.7938 9.00004L142.639 145.948L123.845 152.788Z" fill="black"/>
<path d="M124 154L124 26H144V154H124Z" fill="black"/>
<path d="M0 134H38V134C38 145.046 29.0457 154 18 154H0L0 134Z" fill="#7E7E7E"/>
<path d="M60 26C60 14.9543 68.9543 6.00004 80 6.00004L163 6.00004V26L60 26V26Z" fill="#7E7E7E"/>
<path d="M38 91C38 79.9543 46.9543 71 58 71H89V91H38V91Z" fill="black"/>
<path d="M11.9834 152.626L60.5161 19.2839C64.2939 8.90439 75.7708 3.55263 86.1503 7.33048V7.33048L37.6177 140.673C33.8398 151.052 22.363 156.404 11.9834 152.626V152.626Z" fill="#7E7E7E"/>
</svg>
